<svg width="168" height="75" viewBox="0 0 168 75" fill="none" xmlns="http://www.w3.org/2000/svg">
<g clip-path="url(#clip0)">
<path d="M73.19 27.582C70.5047 28.1647 68.0853 28.456 65.932 28.456C63.7787 28.456 62.056 28.19 60.764 27.658C59.472 27.126 58.4587 26.2773 57.724 25.112C56.9893 23.9467 56.4827 22.5787 56.204 21.008C55.9253 19.4373 55.786 17.4613 55.786 15.08C55.786 10.0893 56.4827 6.61867 57.876 4.668C59.2947 2.692 61.8913 1.704 65.666 1.704C67.8447 1.704 70.3653 2.046 73.228 2.73L73.076 6.91C70.568 6.53 68.478 6.34 66.806 6.34C65.1593 6.34 63.9813 6.568 63.272 7.024C62.5627 7.45467 62.0307 8.29067 61.676 9.532C61.3467 10.7733 61.182 12.8887 61.182 15.878C61.182 18.8673 61.524 20.9447 62.208 22.11C62.9173 23.25 64.3107 23.82 66.388 23.82C68.4907 23.82 70.72 23.6427 73.076 23.288L73.19 27.582ZM91.5428 14.928V22.832C91.5935 23.44 91.6948 23.8707 91.8468 24.124C91.9988 24.352 92.3155 24.5167 92.7968 24.618L92.6448 28.456C91.3528 28.456 90.3141 28.3673 89.5288 28.19C88.7688 28.0127 87.9961 27.658 87.2108 27.126C85.3868 28.0127 83.5248 28.456 81.6248 28.456C77.6981 28.456 75.7348 26.3787 75.7348 22.224C75.7348 20.1973 76.2795 18.766 77.3688 17.93C78.4581 17.0687 80.1301 16.562 82.3848 16.41L86.4508 16.106V14.928C86.4508 14.1427 86.2735 13.6107 85.9188 13.332C85.5641 13.028 84.9941 12.876 84.2088 12.876L77.0648 13.18L76.9128 9.646C79.6235 8.91133 82.1948 8.544 84.6268 8.544C87.0841 8.544 88.8448 9.05067 89.9088 10.064C90.9981 11.0773 91.5428 12.6987 91.5428 14.928ZM82.9928 19.944C81.5741 20.0707 80.8648 20.8307 80.8648 22.224C80.8648 23.6173 81.4855 24.314 82.7268 24.314C83.6895 24.314 84.7408 24.162 85.8808 23.858L86.4508 23.706V19.64L82.9928 19.944ZM110.039 13.75C106.898 13.3447 104.694 13.142 103.427 13.142C102.186 13.142 101.375 13.256 100.995 13.484C100.64 13.712 100.463 14.0793 100.463 14.586C100.463 15.0673 100.704 15.4093 101.185 15.612C101.692 15.7893 102.958 16.068 104.985 16.448C107.037 16.8027 108.494 17.398 109.355 18.234C110.216 19.07 110.647 20.4253 110.647 22.3C110.647 26.404 108.101 28.456 103.009 28.456C101.337 28.456 99.3103 28.228 96.929 27.772L95.713 27.544L95.865 23.288C99.0063 23.6933 101.185 23.896 102.401 23.896C103.642 23.896 104.478 23.782 104.909 23.554C105.365 23.3007 105.593 22.9333 105.593 22.452C105.593 21.9707 105.352 21.616 104.871 21.388C104.415 21.16 103.199 20.8813 101.223 20.552C99.2723 20.2227 97.8157 19.6653 96.853 18.88C95.8903 18.0947 95.409 16.7013 95.409 14.7C95.409 12.6733 96.093 11.1533 97.461 10.14C98.829 9.10133 100.59 8.582 102.743 8.582C104.238 8.582 106.277 8.82267 108.861 9.304L110.115 9.532L110.039 13.75ZM128.875 14.928V22.832C128.926 23.44 129.027 23.8707 129.179 24.124C129.331 24.352 129.648 24.5167 130.129 24.618L129.977 28.456C128.685 28.456 127.646 28.3673 126.861 28.19C126.101 28.0127 125.328 27.658 124.543 27.126C122.719 28.0127 120.857 28.456 118.957 28.456C115.03 28.456 113.067 26.3787 113.067 22.224C113.067 20.1973 113.612 18.766 114.701 17.93C115.79 17.0687 117.462 16.562 119.717 16.41L123.783 16.106V14.928C123.783 14.1427 123.606 13.6107 123.251 13.332C122.896 13.028 122.326 12.876 121.541 12.876L114.397 13.18L114.245 9.646C116.956 8.91133 119.527 8.544 121.959 8.544C124.416 8.544 126.177 9.05067 127.241 10.064C128.33 11.0773 128.875 12.6987 128.875 14.928ZM120.325 19.944C118.906 20.0707 118.197 20.8307 118.197 22.224C118.197 23.6173 118.818 24.314 120.059 24.314C121.022 24.314 122.073 24.162 123.213 23.858L123.783 23.706V19.64L120.325 19.944Z" fill="white"/>
<path d="M67.754 48.264C64.9927 48.264 63.612 49.176 63.612 51C63.612 51.8107 63.954 52.4313 64.638 52.862C65.322 53.2927 66.918 53.9133 69.426 54.724C71.9593 55.5347 73.7327 56.4593 74.746 57.498C75.7593 58.5113 76.266 60.082 76.266 62.21C76.266 64.9207 75.4427 66.9727 73.796 68.366C72.1493 69.7593 69.996 70.456 67.336 70.456C65.36 70.456 62.9407 70.152 60.078 69.544L58.71 69.278L59.242 65.212C62.6367 65.668 65.2333 65.896 67.032 65.896C69.7173 65.896 71.06 64.7813 71.06 62.552C71.06 61.7413 70.7433 61.108 70.11 60.652C69.502 60.196 68.2733 59.702 66.424 59.17C63.4853 58.334 61.408 57.346 60.192 56.206C59.0013 55.0407 58.406 53.432 58.406 51.38C58.406 48.796 59.1913 46.8707 60.762 45.604C62.3327 44.3373 64.486 43.704 67.222 43.704C69.0967 43.704 71.478 43.9573 74.366 44.464L75.734 44.73L75.316 48.872C71.744 48.4667 69.2233 48.264 67.754 48.264ZM94.5799 56.928V64.832C94.6306 65.44 94.7319 65.8707 94.8839 66.124C95.0359 66.352 95.3526 66.5167 95.8339 66.618L95.6819 70.456C94.3899 70.456 93.3513 70.3673 92.5659 70.19C91.8059 70.0127 91.0333 69.658 90.2479 69.126C88.4239 70.0127 86.5619 70.456 84.6619 70.456C80.7353 70.456 78.7719 68.3787 78.7719 64.224C78.7719 62.1973 79.3166 60.766 80.4059 59.93C81.4953 59.0687 83.1673 58.562 85.4219 58.41L89.4879 58.106V56.928C89.4879 56.1427 89.3106 55.6107 88.9559 55.332C88.6013 55.028 88.0313 54.876 87.2459 54.876L80.1019 55.18L79.9499 51.646C82.6606 50.9113 85.2319 50.544 87.6639 50.544C90.1213 50.544 91.8819 51.0507 92.9459 52.064C94.0353 53.0773 94.5799 54.6987 94.5799 56.928ZM86.0299 61.944C84.6113 62.0707 83.9019 62.8307 83.9019 64.224C83.9019 65.6173 84.5226 66.314 85.7639 66.314C86.7266 66.314 87.7779 66.162 88.9179 65.858L89.4879 65.706V61.64L86.0299 61.944ZM108.63 50.544C111.29 50.544 113.228 51.2787 114.444 52.748C115.685 54.192 116.306 56.7887 116.306 60.538C116.306 64.2873 115.597 66.884 114.178 68.328C112.759 69.7467 110.315 70.456 106.844 70.456C105.755 70.456 103.766 70.3293 100.878 70.076L99.4341 69.924V43.4H104.526V51.57C106.147 50.886 107.515 50.544 108.63 50.544ZM106.844 65.896C108.541 65.896 109.681 65.4907 110.264 64.68C110.847 63.844 111.138 62.362 111.138 60.234C111.138 56.814 110.074 55.104 107.946 55.104C106.933 55.104 105.97 55.2307 105.058 55.484L104.526 55.598V65.744C105.691 65.8453 106.464 65.896 106.844 65.896ZM120.104 70V51H125.196V70H120.104ZM120.104 48.568V43.4H125.196V48.568H120.104ZM134.993 70H129.901V51H134.955V52.064C136.678 51.0507 138.261 50.544 139.705 50.544C142.238 50.544 143.986 51.2913 144.949 52.786C145.912 54.2807 146.393 56.586 146.393 59.702V70H141.301V59.854C141.301 58.2327 141.111 57.042 140.731 56.282C140.351 55.4967 139.591 55.104 138.451 55.104C137.412 55.104 136.412 55.2813 135.449 55.636L134.993 55.788V70ZM155.085 62.666C155.11 63.8313 155.414 64.68 155.997 65.212C156.605 65.7187 157.466 65.972 158.581 65.972C160.937 65.972 163.039 65.896 164.889 65.744L165.953 65.63L166.029 69.392C163.115 70.1013 160.481 70.456 158.125 70.456C155.262 70.456 153.185 69.696 151.893 68.176C150.601 66.656 149.955 64.186 149.955 60.766C149.955 53.9513 152.754 50.544 158.353 50.544C163.875 50.544 166.637 53.4067 166.637 59.132L166.257 62.666H155.085ZM161.621 58.79C161.621 57.27 161.38 56.2187 160.899 55.636C160.417 55.028 159.569 54.724 158.353 54.724C157.162 54.724 156.313 55.0407 155.807 55.674C155.325 56.282 155.072 57.3207 155.047 58.79H161.621Z" fill="white"/>
<circle cx="33.5" cy="37.4999" r="32.5" fill="#EB7F00"/>
<path d="M5.5 53L34.5 20.4999L50.5754 46.8914" stroke="white" stroke-linecap="round"/>
<path d="M2.5 46L13.5 31.0001L18.5 38.5001" stroke="white" stroke-linecap="round"/>
<path d="M45 37.1821L51.5 32L63.5 49" stroke="white" stroke-linecap="round"/>
</g>
<defs>
<clipPath id="clip0">
<rect width="168" height="75" fill="white"/>
</clipPath>
</defs>
</svg>
